{"title":"Blinky.Bill.The.Movie.2015.BRRip.480p.x264.AAC-VYTO [P2PDL]","uid":14295293,"size":377490219,"categoryP":"video","categoryS":"movies","magnet":"?xt=urn:btih:ef61a378886ef9fb707c70b24028dd8c79e19fa1&amp;dn=Blinky.Bill.The.Movie.2015.BRRip.480p.x264.AAC-VYTO+%5BP2PDL%5D&amp;tr=udp%3A%2F%2Ftracker.leechers-paradise.org%3A6969&amp;tr=udp%3A%2F%2Fzer0day.ch%3A1337&amp;tr=udp%3A%2F%2Fopen.demonii.com%3A1337&amp;tr=udp%3A%2F%2Ftracker.coppersurfer.tk%3A6969&amp;tr=udp%3A%2F%2Fexodus.desync.com%3A6969","seeders":0,"leechers":1,"uploader":"VYTOP2PDL","files":6,"time":1460443779,"description":"____    ____ ____    ____ .___________.  ______   \r\n     /   /      /   / |           | /  __    \r\n    /   /      /   /  `---|  |----`|  |  |  | \r\n        /     _    _/       |  |     |  |  |  | \r\n       /        |  |         |  |     |  `--'  | \r\n    __/         |__|         |__|      ______/  \r\n                                                  \r\nPresenting Small Encodes with quality for years!\r\n                                                                                                   \r\n                                                                                                   \r\n\r\n\r\nBlinky.Bill.The.Movie.2015.BRRip.480p.x264.AAC-VYTO\r\n\r\n\r\nGenre: Animation, Adventure, Family \nhttp://www.imdb.com/title/tt3700456/\r\n\r\n\r\nFormat                                   : MPEG-4\r\nFile size                                : 351 MiB\r\nDuration                                 : 1h 30mn\r\nOverall bit rate                         : 540 Kbps\r\n\r\nVideo\r\nFormat                                   : AVC\r\nBit rate                                 : 497 Kbps\r\nWidth                                    : 720 pixels\r\nHeight                                   : 384 pixels\r\nDisplay aspect ratio                     : 1.85:1\r\nFrame rate mode                          : Constant\r\nFrame rate                               : 24.000 fps\r\nBit depth                                : 8 bits\r\nStream size                              : 323 MiB (92%)\r\nWriting library                          : x264 \r\n\r\nAudio\r\nFormat                                   : AAC\r\nBit rate mode                            : Variable\r\nBit rate                                 : 40.0 Kbps\r\nChannel(s)                               : 2 channels\r\nChannel positions                        : Front: L R\r\nSampling rate                            : 48.0 KHz \r\nStream size                              : 26.0 MiB (7%)\r\nLanguage                                 : English\r\n\r\nSubtitle                                 : N/a\r\n\r\n----------------------------------------------------------------------------------------------------\r\n\r\n\r\nEncoder Notes: Looking For Early Access To Anything You Can Provide WEBDL, DVDScr, DVDR, BluRay,\r\nDirect Audio, Music Releases and Seedboxes. If You Got anything to offer please contact us.\r\n\r\nSupport us by donating BC - 1FgwdzPsd1y25Gea8wP1qni35uGCtmkRCD\r\n\r\nFind us and join us!","torrent":{"xt":"urn:btih:ef61a378886ef9fb707c70b24028dd8c79e19fa1","amp;dn":"Blinky.Bill.The.Movie.2015.BRRip.480p.x264.AAC-VYTO+%5BP2PDL%5D","amp;tr":["udp%3A%2F%2Ftracker.leechers-paradise.org%3A6969","udp%3A%2F%2Fzer0day.ch%3A1337","udp%3A%2F%2Fopen.demonii.com%3A1337","udp%3A%2F%2Ftracker.coppersurfer.tk%3A6969","udp%3A%2F%2Fexodus.desync.com%3A6969"],"infoHash":"ef61a378886ef9fb707c70b24028dd8c79e19fa1","infoHashBuffer":{"type":"Buffer","data":[239,97,163,120,136,110,249,251,112,124,112,178,64,40,221,140,121,225,159,161]},"announce":[],"urlList":[]}}